<?xml version="1.0" encoding="utf-8" standalone="no"?>
<!DOCTYPE svg PUBLIC "-//W3C//DTD SVG 1.1//EN"
  "http://www.w3.org/Graphics/SVG/1.1/DTD/svg11.dtd">
<!-- Created with matplotlib (http://matplotlib.org/) -->
<svg height="396pt" version="1.1" viewBox="0 0 576 396" width="576pt" xmlns="http://www.w3.org/2000/svg" xmlns:xlink="http://www.w3.org/1999/xlink">
 <defs>
  <style type="text/css">
*{stroke-linecap:butt;stroke-linejoin:round;}
  </style>
 </defs>
 <g id="figure_1">
  <g id="patch_1">
   <path d="M 0 396 
L 576 396 
L 576 0 
L 0 0 
z
" style="fill:#ffffff;"/>
  </g>
  <g id="axes_1">
   <g id="patch_2">
    <path d="M 34.493 369.632 
L 565.632 369.632 
L 565.632 24.368 
L 34.493 24.368 
z
" style="fill:#eaeaf2;"/>
   </g>
   <g id="matplotlib.axis_1">
    <g id="xtick_1">
     <g id="line2d_1">
      <path clip-path="url(#pd6549626ee)" d="M 58.635682 369.632 
L 58.635682 24.368 
" style="fill:none;stroke:#ffffff;stroke-linecap:round;"/>
     </g>
     <g id="line2d_2"/>
     <g id="text_1">
      <!-- 0 -->
      <defs>
       <path d="M 4.15625 35.296875 
Q 4.15625 48 6.765625 55.734375 
Q 9.375 63.484375 14.515625 67.671875 
Q 19.671875 71.875 27.484375 71.875 
Q 33.25 71.875 37.59375 69.546875 
Q 41.9375 67.234375 44.765625 62.859375 
Q 47.609375 58.5 49.21875 52.21875 
Q 50.828125 45.953125 50.828125 35.296875 
Q 50.828125 22.703125 48.234375 14.96875 
Q 45.65625 7.234375 40.5 3 
Q 35.359375 -1.21875 27.484375 -1.21875 
Q 17.140625 -1.21875 11.234375 6.203125 
Q 4.15625 15.140625 4.15625 35.296875 
z
M 13.1875 35.296875 
Q 13.1875 17.671875 17.3125 11.828125 
Q 21.4375 6 27.484375 6 
Q 33.546875 6 37.671875 11.859375 
Q 41.796875 17.71875 41.796875 35.296875 
Q 41.796875 52.984375 37.671875 58.78125 
Q 33.546875 64.59375 27.390625 64.59375 
Q 21.34375 64.59375 17.71875 59.46875 
Q 13.1875 52.9375 13.1875 35.296875 
z
" id="ArialMT-30"/>
      </defs>
      <g style="fill:#262626;" transform="translate(55.855213 383.789812)scale(0.1 -0.1)">
       <use xlink:href="#ArialMT-30"/>
      </g>
     </g>
    </g>
    <g id="xtick_2">
     <g id="line2d_3">
      <path clip-path="url(#pd6549626ee)" d="M 141.886309 369.632 
L 141.886309 24.368 
" style="fill:none;stroke:#ffffff;stroke-linecap:round;"/>
     </g>
     <g id="line2d_4"/>
     <g id="text_2">
      <!-- 1 -->
      <defs>
       <path d="M 37.25 0 
L 28.46875 0 
L 28.46875 56 
Q 25.296875 52.984375 20.140625 49.953125 
Q 14.984375 46.921875 10.890625 45.40625 
L 10.890625 53.90625 
Q 18.265625 57.375 23.78125 62.296875 
Q 29.296875 67.234375 31.59375 71.875 
L 37.25 71.875 
z
" id="ArialMT-31"/>
      </defs>
      <g style="fill:#262626;" transform="translate(139.10584 383.789812)scale(0.1 -0.1)">
       <use xlink:href="#ArialMT-31"/>
      </g>
     </g>
    </g>
    <g id="xtick_3">
     <g id="line2d_5">
      <path clip-path="url(#pd6549626ee)" d="M 225.136936 369.632 
L 225.136936 24.368 
" style="fill:none;stroke:#ffffff;stroke-linecap:round;"/>
     </g>
     <g id="line2d_6"/>
     <g id="text_3">
      <!-- 2 -->
      <defs>
       <path d="M 50.34375 8.453125 
L 50.34375 0 
L 3.03125 0 
Q 2.9375 3.171875 4.046875 6.109375 
Q 5.859375 10.9375 9.828125 15.625 
Q 13.8125 20.3125 21.34375 26.46875 
Q 33.015625 36.03125 37.109375 41.625 
Q 41.21875 47.21875 41.21875 52.203125 
Q 41.21875 57.421875 37.46875 61 
Q 33.734375 64.59375 27.734375 64.59375 
Q 21.390625 64.59375 17.578125 60.78125 
Q 13.765625 56.984375 13.71875 50.25 
L 4.6875 51.171875 
Q 5.609375 61.28125 11.65625 66.578125 
Q 17.71875 71.875 27.9375 71.875 
Q 38.234375 71.875 44.234375 66.15625 
Q 50.25 60.453125 50.25 52 
Q 50.25 47.703125 48.484375 43.546875 
Q 46.734375 39.40625 42.65625 34.8125 
Q 38.578125 30.21875 29.109375 22.21875 
Q 21.1875 15.578125 18.9375 13.203125 
Q 16.703125 10.84375 15.234375 8.453125 
z
" id="ArialMT-32"/>
      </defs>
      <g style="fill:#262626;" transform="translate(222.356467 383.789812)scale(0.1 -0.1)">
       <use xlink:href="#ArialMT-32"/>
      </g>
     </g>
    </g>
    <g id="xtick_4">
     <g id="line2d_7">
      <path clip-path="url(#pd6549626ee)" d="M 308.387563 369.632 
L 308.387563 24.368 
" style="fill:none;stroke:#ffffff;stroke-linecap:round;"/>
     </g>
     <g id="line2d_8"/>
     <g id="text_4">
      <!-- 3 -->
      <defs>
       <path d="M 4.203125 18.890625 
L 12.984375 20.0625 
Q 14.5 12.59375 18.140625 9.296875 
Q 21.78125 6 27 6 
Q 33.203125 6 37.46875 10.296875 
Q 41.75 14.59375 41.75 20.953125 
Q 41.75 27 37.796875 30.921875 
Q 33.84375 34.859375 27.734375 34.859375 
Q 25.25 34.859375 21.53125 33.890625 
L 22.515625 41.609375 
Q 23.390625 41.5 23.921875 41.5 
Q 29.546875 41.5 34.03125 44.421875 
Q 38.53125 47.359375 38.53125 53.46875 
Q 38.53125 58.296875 35.25 61.46875 
Q 31.984375 64.65625 26.8125 64.65625 
Q 21.6875 64.65625 18.265625 61.421875 
Q 14.84375 58.203125 13.875 51.765625 
L 5.078125 53.328125 
Q 6.6875 62.15625 12.390625 67.015625 
Q 18.109375 71.875 26.609375 71.875 
Q 32.46875 71.875 37.390625 69.359375 
Q 42.328125 66.84375 44.9375 62.5 
Q 47.5625 58.15625 47.5625 53.265625 
Q 47.5625 48.640625 45.0625 44.828125 
Q 42.578125 41.015625 37.703125 38.765625 
Q 44.046875 37.3125 47.5625 32.6875 
Q 51.078125 28.078125 51.078125 21.140625 
Q 51.078125 11.765625 44.234375 5.25 
Q 37.40625 -1.265625 26.953125 -1.265625 
Q 17.53125 -1.265625 11.296875 4.34375 
Q 5.078125 9.96875 4.203125 18.890625 
z
" id="ArialMT-33"/>
      </defs>
      <g style="fill:#262626;" transform="translate(305.607094 383.789812)scale(0.1 -0.1)">
       <use xlink:href="#ArialMT-33"/>
      </g>
     </g>
    </g>
    <g id="xtick_5">
     <g id="line2d_9">
      <path clip-path="url(#pd6549626ee)" d="M 391.63819 369.632 
L 391.63819 24.368 
" style="fill:none;stroke:#ffffff;stroke-linecap:round;"/>
     </g>
     <g id="line2d_10"/>
     <g id="text_5">
      <!-- 4 -->
      <defs>
       <path d="M 32.328125 0 
L 32.328125 17.140625 
L 1.265625 17.140625 
L 1.265625 25.203125 
L 33.9375 71.578125 
L 41.109375 71.578125 
L 41.109375 25.203125 
L 50.78125 25.203125 
L 50.78125 17.140625 
L 41.109375 17.140625 
L 41.109375 0 
z
M 32.328125 25.203125 
L 32.328125 57.46875 
L 9.90625 25.203125 
z
" id="ArialMT-34"/>
      </defs>
      <g style="fill:#262626;" transform="translate(388.857721 383.789812)scale(0.1 -0.1)">
       <use xlink:href="#ArialMT-34"/>
      </g>
     </g>
    </g>
    <g id="xtick_6">
     <g id="line2d_11">
      <path clip-path="url(#pd6549626ee)" d="M 474.888817 369.632 
L 474.888817 24.368 
" style="fill:none;stroke:#ffffff;stroke-linecap:round;"/>
     </g>
     <g id="line2d_12"/>
     <g id="text_6">
      <!-- 5 -->
      <defs>
       <path d="M 4.15625 18.75 
L 13.375 19.53125 
Q 14.40625 12.796875 18.140625 9.390625 
Q 21.875 6 27.15625 6 
Q 33.5 6 37.890625 10.78125 
Q 42.28125 15.578125 42.28125 23.484375 
Q 42.28125 31 38.0625 35.34375 
Q 33.84375 39.703125 27 39.703125 
Q 22.75 39.703125 19.328125 37.765625 
Q 15.921875 35.84375 13.96875 32.765625 
L 5.71875 33.84375 
L 12.640625 70.609375 
L 48.25 70.609375 
L 48.25 62.203125 
L 19.671875 62.203125 
L 15.828125 42.96875 
Q 22.265625 47.46875 29.34375 47.46875 
Q 38.71875 47.46875 45.15625 40.96875 
Q 51.609375 34.46875 51.609375 24.265625 
Q 51.609375 14.546875 45.953125 7.46875 
Q 39.0625 -1.21875 27.15625 -1.21875 
Q 17.390625 -1.21875 11.203125 4.25 
Q 5.03125 9.71875 4.15625 18.75 
z
" id="ArialMT-35"/>
      </defs>
      <g style="fill:#262626;" transform="translate(472.108348 383.789812)scale(0.1 -0.1)">
       <use xlink:href="#ArialMT-35"/>
      </g>
     </g>
    </g>
    <g id="xtick_7">
     <g id="line2d_13">
      <path clip-path="url(#pd6549626ee)" d="M 558.139444 369.632 
L 558.139444 24.368 
" style="fill:none;stroke:#ffffff;stroke-linecap:round;"/>
     </g>
     <g id="line2d_14"/>
     <g id="text_7">
      <!-- 6 -->
      <defs>
       <path d="M 49.75 54.046875 
L 41.015625 53.375 
Q 39.84375 58.546875 37.703125 60.890625 
Q 34.125 64.65625 28.90625 64.65625 
Q 24.703125 64.65625 21.53125 62.3125 
Q 17.390625 59.28125 14.984375 53.46875 
Q 12.59375 47.65625 12.5 36.921875 
Q 15.671875 41.75 20.265625 44.09375 
Q 24.859375 46.4375 29.890625 46.4375 
Q 38.671875 46.4375 44.84375 39.96875 
Q 51.03125 33.5 51.03125 23.25 
Q 51.03125 16.5 48.125 10.71875 
Q 45.21875 4.9375 40.140625 1.859375 
Q 35.0625 -1.21875 28.609375 -1.21875 
Q 17.625 -1.21875 10.6875 6.859375 
Q 3.765625 14.9375 3.765625 33.5 
Q 3.765625 54.25 11.421875 63.671875 
Q 18.109375 71.875 29.4375 71.875 
Q 37.890625 71.875 43.28125 67.140625 
Q 48.6875 62.40625 49.75 54.046875 
z
M 13.875 23.1875 
Q 13.875 18.65625 15.796875 14.5 
Q 17.71875 10.359375 21.1875 8.171875 
Q 24.65625 6 28.46875 6 
Q 34.03125 6 38.03125 10.484375 
Q 42.046875 14.984375 42.046875 22.703125 
Q 42.046875 30.125 38.078125 34.390625 
Q 34.125 38.671875 28.125 38.671875 
Q 22.171875 38.671875 18.015625 34.390625 
Q 13.875 30.125 13.875 23.1875 
z
" id="ArialMT-36"/>
      </defs>
      <g style="fill:#262626;" transform="translate(555.358975 383.789812)scale(0.1 -0.1)">
       <use xlink:href="#ArialMT-36"/>
      </g>
     </g>
    </g>
   </g>
   <g id="matplotlib.axis_2">
    <g id="ytick_1">
     <g id="line2d_15">
      <path clip-path="url(#pd6549626ee)" d="M 34.493 369.632 
L 565.632 369.632 
" style="fill:none;stroke:#ffffff;stroke-linecap:round;"/>
     </g>
     <g id="line2d_16"/>
     <g id="text_8">
      <!-- −15 -->
      <defs>
       <path d="M 52.828125 31.203125 
L 5.5625 31.203125 
L 5.5625 39.40625 
L 52.828125 39.40625 
z
" id="ArialMT-2212"/>
      </defs>
      <g style="fill:#262626;" transform="translate(10.5305 373.210906)scale(0.1 -0.1)">
       <use xlink:href="#ArialMT-2212"/>
       <use x="58.398438" xlink:href="#ArialMT-31"/>
       <use x="114.013672" xlink:href="#ArialMT-35"/>
      </g>
     </g>
    </g>
    <g id="ytick_2">
     <g id="line2d_17">
      <path clip-path="url(#pd6549626ee)" d="M 34.493 320.308571 
L 565.632 320.308571 
" style="fill:none;stroke:#ffffff;stroke-linecap:round;"/>
     </g>
     <g id="line2d_18"/>
     <g id="text_9">
      <!-- −10 -->
      <g style="fill:#262626;" transform="translate(10.5305 323.887478)scale(0.1 -0.1)">
       <use xlink:href="#ArialMT-2212"/>
       <use x="58.398438" xlink:href="#ArialMT-31"/>
       <use x="114.013672" xlink:href="#ArialMT-30"/>
      </g>
     </g>
    </g>
    <g id="ytick_3">
     <g id="line2d_19">
      <path clip-path="url(#pd6549626ee)" d="M 34.493 270.985143 
L 565.632 270.985143 
" style="fill:none;stroke:#ffffff;stroke-linecap:round;"/>
     </g>
     <g id="line2d_20"/>
     <g id="text_10">
      <!-- −5 -->
      <g style="fill:#262626;" transform="translate(16.091438 274.564049)scale(0.1 -0.1)">
       <use xlink:href="#ArialMT-2212"/>
       <use x="58.398438" xlink:href="#ArialMT-35"/>
      </g>
     </g>
    </g>
    <g id="ytick_4">
     <g id="line2d_21">
      <path clip-path="url(#pd6549626ee)" d="M 34.493 221.661714 
L 565.632 221.661714 
" style="fill:none;stroke:#ffffff;stroke-linecap:round;"/>
     </g>
     <g id="line2d_22"/>
     <g id="text_11">
      <!-- 0 -->
      <g style="fill:#262626;" transform="translate(21.932063 225.240621)scale(0.1 -0.1)">
       <use xlink:href="#ArialMT-30"/>
      </g>
     </g>
    </g>
    <g id="ytick_5">
     <g id="line2d_23">
      <path clip-path="url(#pd6549626ee)" d="M 34.493 172.338286 
L 565.632 172.338286 
" style="fill:none;stroke:#ffffff;stroke-linecap:round;"/>
     </g>
     <g id="line2d_24"/>
     <g id="text_12">
      <!-- 5 -->
      <g style="fill:#262626;" transform="translate(21.932063 175.917192)scale(0.1 -0.1)">
       <use xlink:href="#ArialMT-35"/>
      </g>
     </g>
    </g>
    <g id="ytick_6">
     <g id="line2d_25">
      <path clip-path="url(#pd6549626ee)" d="M 34.493 123.014857 
L 565.632 123.014857 
" style="fill:none;stroke:#ffffff;stroke-linecap:round;"/>
     </g>
     <g id="line2d_26"/>
     <g id="text_13">
      <!-- 10 -->
      <g style="fill:#262626;" transform="translate(16.371125 126.593763)scale(0.1 -0.1)">
       <use xlink:href="#ArialMT-31"/>
       <use x="55.615234" xlink:href="#ArialMT-30"/>
      </g>
     </g>
    </g>
    <g id="ytick_7">
     <g id="line2d_27">
      <path clip-path="url(#pd6549626ee)" d="M 34.493 73.691429 
L 565.632 73.691429 
" style="fill:none;stroke:#ffffff;stroke-linecap:round;"/>
     </g>
     <g id="line2d_28"/>
     <g id="text_14">
      <!-- 15 -->
      <g style="fill:#262626;" transform="translate(16.371125 77.270335)scale(0.1 -0.1)">
       <use xlink:href="#ArialMT-31"/>
       <use x="55.615234" xlink:href="#ArialMT-35"/>
      </g>
     </g>
    </g>
    <g id="ytick_8">
     <g id="line2d_29">
      <path clip-path="url(#pd6549626ee)" d="M 34.493 24.368 
L 565.632 24.368 
" style="fill:none;stroke:#ffffff;stroke-linecap:round;"/>
     </g>
     <g id="line2d_30"/>
     <g id="text_15">
      <!-- 20 -->
      <g style="fill:#262626;" transform="translate(16.371125 27.946906)scale(0.1 -0.1)">
       <use xlink:href="#ArialMT-32"/>
       <use x="55.615234" xlink:href="#ArialMT-30"/>
      </g>
     </g>
    </g>
   </g>
   <g id="line2d_31">
    <path clip-path="url(#pd6549626ee)" d="M 58.635682 211.797029 
L 75.285807 211.993666 
L 91.935933 212.575737 
L 108.586058 213.520038 
L 125.236183 214.788922 
L 141.886309 216.331802 
L 158.536434 218.087169 
L 175.18656 219.985042 
L 191.836685 221.949758 
L 208.48681 223.902992 
L 225.136936 225.766872 
L 241.787061 227.467093 
L 258.437187 228.935872 
L 275.087312 230.114653 
L 291.737437 230.956442 
L 308.387563 231.427679 
L 325.037688 231.509578 
L 341.687813 231.198875 
L 358.337939 230.507954 
L 374.988064 229.464362 
L 391.63819 228.109703 
L 408.288315 226.497983 
L 424.93844 224.693456 
L 441.588566 222.768064 
L 458.238691 220.798564 
L 474.888817 218.863476 
L 491.538942 217.039945 
L 508.189067 215.400669 
L 524.839193 214.011001 
L 541.489318 212.926343 
" style="fill:none;stroke:#3e98a3;stroke-linecap:round;stroke-width:1.75;"/>
   </g>
   <g id="line2d_32">
    <path clip-path="url(#pd6549626ee)" d="M 58.635682 221.661714 
L 75.285807 219.701904 
L 91.935933 217.820225 
L 108.586058 216.091694 
L 125.236183 214.585222 
L 141.886309 213.360867 
L 158.536434 212.467442 
L 175.18656 211.940562 
L 191.836685 211.801235 
L 208.48681 212.055013 
L 225.136936 212.691781 
L 241.787061 213.686151 
L 258.437187 214.998482 
L 275.087312 216.576455 
L 291.737437 218.357161 
L 308.387563 220.26961 
L 325.037688 222.237557 
L 341.687813 224.182547 
L 358.337939 226.027039 
L 374.988064 227.6975 
L 391.63819 229.127333 
L 408.288315 230.259535 
L 424.93844 231.04897 
L 441.588566 231.464164 
L 458.238691 231.488565 
L 474.888817 231.121201 
L 491.538942 230.376717 
L 508.189067 229.284793 
L 524.839193 227.888961 
L 541.489318 226.244869 
" style="fill:none;stroke:#2188a8;stroke-linecap:round;stroke-width:1.75;"/>
   </g>
   <g id="line2d_33">
    <path clip-path="url(#pd6549626ee)" d="M 58.635682 221.661714 
L 75.285807 219.662043 
L 91.935933 217.490992 
L 108.586058 214.91292 
L 125.236183 211.504654 
L 141.886309 206.298377 
L 158.536434 196.288247 
L 175.18656 164.467414 
L 184.991116 397 
M 200.987439 397 
L 208.48681 263.944339 
L 225.136936 243.216446 
L 241.787061 235.214047 
L 258.437187 230.697907 
L 275.087312 227.596276 
L 291.737437 225.168904 
L 308.387563 223.067891 
L 325.037688 221.084888 
L 341.687813 219.054311 
L 358.337939 216.79382 
L 374.988064 214.030827 
L 391.63819 210.240171 
L 408.288315 204.124476 
L 424.93844 191.117453 
L 441.588566 134.258874 
L 458.238691 333.969885 
L 474.888817 255.009432 
L 491.538942 240.262979 
L 508.189067 233.672372 
L 524.839193 229.691009 
L 541.489318 226.837382 
" style="fill:none;stroke:#1a3c70;stroke-linecap:round;stroke-width:1.75;"/>
   </g>
   <g id="line2d_34">
    <path clip-path="url(#pd6549626ee)" d="M 58.635682 221.661714 
L 75.285807 218.702309 
L 91.935933 215.742903 
L 108.586058 212.783497 
L 125.236183 209.824091 
L 141.886309 206.864686 
L 158.536434 203.90528 
L 175.18656 200.945874 
L 191.836685 197.986469 
L 208.48681 195.027063 
L 225.136936 192.067657 
L 241.787061 189.108251 
L 258.437187 186.148846 
L 275.087312 183.18944 
L 291.737437 180.230034 
L 308.387563 177.270629 
L 325.037688 174.311223 
L 341.687813 171.351817 
L 358.337939 168.392411 
L 374.988064 165.433006 
L 391.63819 162.4736 
L 408.288315 159.514194 
L 424.93844 156.554789 
L 441.588566 153.595383 
L 458.238691 150.635977 
L 474.888817 147.676571 
L 491.538942 144.717166 
L 508.189067 141.75776 
L 524.839193 138.798354 
L 541.489318 135.838949 
" style="fill:none;stroke:#1849a2;stroke-linecap:round;stroke-width:1.75;"/>
   </g>
   <g id="line2d_35">
    <path clip-path="url(#pd6549626ee)" d="M 58.635682 211.797029 
L 75.285807 209.61296 
L 91.935933 206.945333 
L 108.586058 203.687085 
L 125.236183 199.707452 
L 141.886309 194.846718 
L 158.536434 188.909804 
L 175.18656 181.658441 
L 191.836685 172.801606 
L 208.48681 161.983843 
L 225.136936 148.770998 
L 241.787061 132.632793 
L 258.437187 112.921544 
L 275.087312 88.84617 
L 291.737437 59.440442 
L 308.387563 23.524205 
L 317.695699 -1 
" style="fill:none;stroke:#8e8752;stroke-linecap:round;stroke-width:1.75;"/>
   </g>
   <g id="line2d_36">
    <path clip-path="url(#pd6549626ee)" d="M 58.635682 221.661714 
L 75.285807 217.250093 
L 91.935933 215.422739 
L 108.586058 214.020562 
L 125.236183 212.838471 
L 141.886309 211.797029 
L 158.536434 210.855493 
L 175.18656 209.989661 
L 191.836685 209.183764 
L 208.48681 208.42685 
L 225.136936 207.710942 
L 241.787061 207.030021 
L 258.437187 206.379409 
L 275.087312 205.755387 
L 291.737437 205.154938 
L 308.387563 204.575577 
L 325.037688 204.015228 
L 341.687813 203.472133 
L 358.337939 202.944789 
L 374.988064 202.431902 
L 391.63819 201.932343 
L 408.288315 201.445125 
L 424.93844 200.969375 
L 441.588566 200.504321 
L 458.238691 200.049271 
L 474.888817 199.603606 
L 491.538942 199.16677 
L 508.189067 198.738256 
L 524.839193 198.317607 
L 541.489318 197.904405 
" style="fill:none;stroke:#d5d770;stroke-linecap:round;stroke-width:1.75;"/>
   </g>
   <g id="line2d_37">
    <path clip-path="url(#pd6549626ee)" d="M 58.635682 221.661714 
L 75.285807 211.797029 
L 91.935933 211.797029 
L 108.586058 211.797029 
L 125.236183 211.797029 
L 141.886309 211.797029 
L 158.536434 201.932343 
L 175.18656 201.932343 
L 191.836685 201.932343 
L 208.48681 201.932343 
L 225.136936 201.932343 
L 241.787061 192.067657 
L 258.437187 192.067657 
L 275.087312 192.067657 
L 291.737437 192.067657 
L 308.387563 192.067657 
L 325.037688 182.202971 
L 341.687813 182.202971 
L 358.337939 182.202971 
L 374.988064 182.202971 
L 391.63819 182.202971 
L 408.288315 172.338286 
L 424.93844 172.338286 
L 441.588566 172.338286 
L 458.238691 172.338286 
L 474.888817 172.338286 
L 491.538942 162.4736 
L 508.189067 162.4736 
L 524.839193 162.4736 
L 541.489318 162.4736 
" style="fill:none;stroke:#42406c;stroke-linecap:round;stroke-width:1.75;"/>
   </g>
   <g id="line2d_38">
    <path clip-path="url(#pd6549626ee)" d="M 58.635682 221.661714 
L 75.285807 221.661714 
L 91.935933 221.661714 
L 108.586058 221.661714 
L 125.236183 221.661714 
L 141.886309 211.797029 
L 158.536434 211.797029 
L 175.18656 211.797029 
L 191.836685 211.797029 
L 208.48681 211.797029 
L 225.136936 201.932343 
L 241.787061 201.932343 
L 258.437187 201.932343 
L 275.087312 201.932343 
L 291.737437 201.932343 
L 308.387563 192.067657 
L 325.037688 192.067657 
L 341.687813 192.067657 
L 358.337939 192.067657 
L 374.988064 192.067657 
L 391.63819 182.202971 
L 408.288315 182.202971 
L 424.93844 182.202971 
L 441.588566 182.202971 
L 458.238691 182.202971 
L 474.888817 172.338286 
L 491.538942 172.338286 
L 508.189067 172.338286 
L 524.839193 172.338286 
L 541.489318 172.338286 
" style="fill:none;stroke:#cbb9b2;stroke-linecap:round;stroke-width:1.75;"/>
   </g>
   <g id="line2d_39">
    <path clip-path="url(#pd6549626ee)" d="M 58.635682 221.661714 
L 75.285807 221.267127 
L 91.935933 220.083365 
L 108.586058 218.110427 
L 125.236183 215.348315 
L 141.886309 211.797029 
L 158.536434 207.456567 
L 175.18656 202.32693 
L 191.836685 196.408119 
L 208.48681 189.700133 
L 225.136936 182.202971 
L 241.787061 173.916635 
L 258.437187 164.841125 
L 275.087312 154.976439 
L 291.737437 144.322578 
L 308.387563 132.879543 
L 325.037688 120.647333 
L 341.687813 107.625947 
L 358.337939 93.815387 
L 374.988064 79.215653 
L 391.63819 63.826743 
L 408.288315 47.648658 
L 424.93844 30.681399 
L 441.588566 12.924965 
L 454.090307 -1 
" style="fill:none;stroke:#2d080a;stroke-linecap:round;stroke-width:1.75;"/>
   </g>
   <g id="line2d_40">
    <path clip-path="url(#pd6549626ee)" d="M 58.635682 221.661714 
L 75.285807 221.582797 
L 91.935933 221.030374 
L 108.586058 219.530942 
L 125.236183 216.610995 
L 141.886309 211.797029 
L 158.536434 204.615537 
L 175.18656 194.593017 
L 191.836685 181.255962 
L 208.48681 164.130867 
L 225.136936 142.744229 
L 241.787061 116.622541 
L 258.437187 85.292299 
L 275.087312 48.279998 
L 291.737437 5.112133 
L 293.781093 -1 
" style="fill:none;stroke:#c23841;stroke-linecap:round;stroke-width:1.75;"/>
   </g>
   <g id="patch_3">
    <path d="M 34.493 369.632 
L 34.493 24.368 
" style="fill:none;"/>
   </g>
   <g id="patch_4">
    <path d="M 565.632 369.632 
L 565.632 24.368 
" style="fill:none;"/>
   </g>
   <g id="patch_5">
    <path d="M 34.493 369.632 
L 565.632 369.632 
" style="fill:none;"/>
   </g>
   <g id="patch_6">
    <path d="M 34.493 24.368 
L 565.632 24.368 
" style="fill:none;"/>
   </g>
   <g id="text_16">
    <!-- KIKI PALETTE -->
    <defs>
     <path d="M 7.328125 0 
L 7.328125 71.578125 
L 16.796875 71.578125 
L 16.796875 36.078125 
L 52.34375 71.578125 
L 65.1875 71.578125 
L 35.15625 42.578125 
L 66.5 0 
L 54 0 
L 28.515625 36.234375 
L 16.796875 24.8125 
L 16.796875 0 
z
" id="ArialMT-4b"/>
     <path d="M 9.328125 0 
L 9.328125 71.578125 
L 18.796875 71.578125 
L 18.796875 0 
z
" id="ArialMT-49"/>
     <path id="ArialMT-20"/>
     <path d="M 7.71875 0 
L 7.71875 71.578125 
L 34.71875 71.578125 
Q 41.84375 71.578125 45.609375 70.90625 
Q 50.875 70.015625 54.4375 67.546875 
Q 58.015625 65.09375 60.1875 60.640625 
Q 62.359375 56.203125 62.359375 50.875 
Q 62.359375 41.75 56.546875 35.421875 
Q 50.734375 29.109375 35.546875 29.109375 
L 17.1875 29.109375 
L 17.1875 0 
z
M 17.1875 37.546875 
L 35.6875 37.546875 
Q 44.875 37.546875 48.734375 40.96875 
Q 52.59375 44.390625 52.59375 50.59375 
Q 52.59375 55.078125 50.3125 58.265625 
Q 48.046875 61.46875 44.34375 62.5 
Q 41.9375 63.140625 35.5 63.140625 
L 17.1875 63.140625 
z
" id="ArialMT-50"/>
     <path d="M -0.140625 0 
L 27.34375 71.578125 
L 37.546875 71.578125 
L 66.84375 0 
L 56.0625 0 
L 47.703125 21.6875 
L 17.78125 21.6875 
L 9.90625 0 
z
M 20.515625 29.390625 
L 44.78125 29.390625 
L 37.3125 49.21875 
Q 33.890625 58.25 32.234375 64.0625 
Q 30.859375 57.171875 28.375 50.390625 
z
" id="ArialMT-41"/>
     <path d="M 7.328125 0 
L 7.328125 71.578125 
L 16.796875 71.578125 
L 16.796875 8.453125 
L 52.046875 8.453125 
L 52.046875 0 
z
" id="ArialMT-4c"/>
     <path d="M 7.90625 0 
L 7.90625 71.578125 
L 59.671875 71.578125 
L 59.671875 63.140625 
L 17.390625 63.140625 
L 17.390625 41.21875 
L 56.984375 41.21875 
L 56.984375 32.8125 
L 17.390625 32.8125 
L 17.390625 8.453125 
L 61.328125 8.453125 
L 61.328125 0 
z
" id="ArialMT-45"/>
     <path d="M 25.921875 0 
L 25.921875 63.140625 
L 2.34375 63.140625 
L 2.34375 71.578125 
L 59.078125 71.578125 
L 59.078125 63.140625 
L 35.40625 63.140625 
L 35.40625 0 
z
" id="ArialMT-54"/>
    </defs>
    <g style="fill:#262626;" transform="translate(260.389375 18.368)scale(0.12 -0.12)">
     <use xlink:href="#ArialMT-4b"/>
     <use x="66.699219" xlink:href="#ArialMT-49"/>
     <use x="94.482422" xlink:href="#ArialMT-4b"/>
     <use x="161.181641" xlink:href="#ArialMT-49"/>
     <use x="188.964844" xlink:href="#ArialMT-20"/>
     <use x="216.748047" xlink:href="#ArialMT-50"/>
     <use x="283.337891" xlink:href="#ArialMT-41"/>
     <use x="350.037109" xlink:href="#ArialMT-4c"/>
     <use x="405.652344" xlink:href="#ArialMT-45"/>
     <use x="472.351562" xlink:href="#ArialMT-54"/>
     <use x="533.435547" xlink:href="#ArialMT-54"/>
     <use x="594.519531" xlink:href="#ArialMT-45"/>
    </g>
   </g>
  </g>
 </g>
 <defs>
  <clipPath id="pd6549626ee">
   <rect height="345.264" width="531.139" x="34.493" y="24.368"/>
  </clipPath>
 </defs>
</svg>
