<?xml version="1.0" encoding="utf-8" standalone="no"?>
<!DOCTYPE svg PUBLIC "-//W3C//DTD SVG 1.1//EN"
  "http://www.w3.org/Graphics/SVG/1.1/DTD/svg11.dtd">
<!-- Created with matplotlib (http://matplotlib.org/) -->
<svg height="396pt" version="1.1" viewBox="0 0 576 396" width="576pt" xmlns="http://www.w3.org/2000/svg" xmlns:xlink="http://www.w3.org/1999/xlink">
 <defs>
  <style type="text/css">
*{stroke-linecap:butt;stroke-linejoin:round;}
  </style>
 </defs>
 <g id="figure_1">
  <g id="patch_1">
   <path d="M 0 396 
L 576 396 
L 576 0 
L 0 0 
z
" style="fill:#ffffff;"/>
  </g>
  <g id="axes_1">
   <g id="patch_2">
    <path d="M 34.925 369.2 
L 562.3875 369.2 
L 562.3875 23.8 
L 34.925 23.8 
z
" style="fill:#eaeaf2;"/>
   </g>
   <g id="matplotlib.axis_1">
    <g id="xtick_1">
     <g id="line2d_1">
      <path clip-path="url(#p11833b61e1)" d="M 34.925 369.2 
L 34.925 23.8 
" style="fill:none;stroke:#ffffff;stroke-linecap:round;"/>
     </g>
     <g id="line2d_2"/>
     <g id="line2d_3"/>
     <g id="text_1">
      <!-- 0 -->
      <defs>
       <path d="M 4.15625 35.296875 
Q 4.15625 48 6.765625 55.734375 
Q 9.375 63.484375 14.515625 67.671875 
Q 19.671875 71.875 27.484375 71.875 
Q 33.25 71.875 37.59375 69.546875 
Q 41.9375 67.234375 44.765625 62.859375 
Q 47.609375 58.5 49.21875 52.21875 
Q 50.828125 45.953125 50.828125 35.296875 
Q 50.828125 22.703125 48.234375 14.96875 
Q 45.65625 7.234375 40.5 3 
Q 35.359375 -1.21875 27.484375 -1.21875 
Q 17.140625 -1.21875 11.234375 6.203125 
Q 4.15625 15.140625 4.15625 35.296875 
z
M 13.1875 35.296875 
Q 13.1875 17.671875 17.3125 11.828125 
Q 21.4375 6 27.484375 6 
Q 33.546875 6 37.671875 11.859375 
Q 41.796875 17.71875 41.796875 35.296875 
Q 41.796875 52.984375 37.671875 58.78125 
Q 33.546875 64.59375 27.390625 64.59375 
Q 21.34375 64.59375 17.71875 59.46875 
Q 13.1875 52.9375 13.1875 35.296875 
z
" id="ArialMT-30"/>
      </defs>
      <g style="fill:#262626;" transform="translate(32.144531 383.357813)scale(0.1 -0.1)">
       <use xlink:href="#ArialMT-30"/>
      </g>
     </g>
    </g>
    <g id="xtick_2">
     <g id="line2d_4">
      <path clip-path="url(#p11833b61e1)" d="M 122.835417 369.2 
L 122.835417 23.8 
" style="fill:none;stroke:#ffffff;stroke-linecap:round;"/>
     </g>
     <g id="line2d_5"/>
     <g id="line2d_6"/>
     <g id="text_2">
      <!-- 1 -->
      <defs>
       <path d="M 37.25 0 
L 28.46875 0 
L 28.46875 56 
Q 25.296875 52.984375 20.140625 49.953125 
Q 14.984375 46.921875 10.890625 45.40625 
L 10.890625 53.90625 
Q 18.265625 57.375 23.78125 62.296875 
Q 29.296875 67.234375 31.59375 71.875 
L 37.25 71.875 
z
" id="ArialMT-31"/>
      </defs>
      <g style="fill:#262626;" transform="translate(120.054948 383.357813)scale(0.1 -0.1)">
       <use xlink:href="#ArialMT-31"/>
      </g>
     </g>
    </g>
    <g id="xtick_3">
     <g id="line2d_7">
      <path clip-path="url(#p11833b61e1)" d="M 210.745833 369.2 
L 210.745833 23.8 
" style="fill:none;stroke:#ffffff;stroke-linecap:round;"/>
     </g>
     <g id="line2d_8"/>
     <g id="line2d_9"/>
     <g id="text_3">
      <!-- 2 -->
      <defs>
       <path d="M 50.34375 8.453125 
L 50.34375 0 
L 3.03125 0 
Q 2.9375 3.171875 4.046875 6.109375 
Q 5.859375 10.9375 9.828125 15.625 
Q 13.8125 20.3125 21.34375 26.46875 
Q 33.015625 36.03125 37.109375 41.625 
Q 41.21875 47.21875 41.21875 52.203125 
Q 41.21875 57.421875 37.46875 61 
Q 33.734375 64.59375 27.734375 64.59375 
Q 21.390625 64.59375 17.578125 60.78125 
Q 13.765625 56.984375 13.71875 50.25 
L 4.6875 51.171875 
Q 5.609375 61.28125 11.65625 66.578125 
Q 17.71875 71.875 27.9375 71.875 
Q 38.234375 71.875 44.234375 66.15625 
Q 50.25 60.453125 50.25 52 
Q 50.25 47.703125 48.484375 43.546875 
Q 46.734375 39.40625 42.65625 34.8125 
Q 38.578125 30.21875 29.109375 22.21875 
Q 21.1875 15.578125 18.9375 13.203125 
Q 16.703125 10.84375 15.234375 8.453125 
z
" id="ArialMT-32"/>
      </defs>
      <g style="fill:#262626;" transform="translate(207.965365 383.357813)scale(0.1 -0.1)">
       <use xlink:href="#ArialMT-32"/>
      </g>
     </g>
    </g>
    <g id="xtick_4">
     <g id="line2d_10">
      <path clip-path="url(#p11833b61e1)" d="M 298.65625 369.2 
L 298.65625 23.8 
" style="fill:none;stroke:#ffffff;stroke-linecap:round;"/>
     </g>
     <g id="line2d_11"/>
     <g id="line2d_12"/>
     <g id="text_4">
      <!-- 3 -->
      <defs>
       <path d="M 4.203125 18.890625 
L 12.984375 20.0625 
Q 14.5 12.59375 18.140625 9.296875 
Q 21.78125 6 27 6 
Q 33.203125 6 37.46875 10.296875 
Q 41.75 14.59375 41.75 20.953125 
Q 41.75 27 37.796875 30.921875 
Q 33.84375 34.859375 27.734375 34.859375 
Q 25.25 34.859375 21.53125 33.890625 
L 22.515625 41.609375 
Q 23.390625 41.5 23.921875 41.5 
Q 29.546875 41.5 34.03125 44.421875 
Q 38.53125 47.359375 38.53125 53.46875 
Q 38.53125 58.296875 35.25 61.46875 
Q 31.984375 64.65625 26.8125 64.65625 
Q 21.6875 64.65625 18.265625 61.421875 
Q 14.84375 58.203125 13.875 51.765625 
L 5.078125 53.328125 
Q 6.6875 62.15625 12.390625 67.015625 
Q 18.109375 71.875 26.609375 71.875 
Q 32.46875 71.875 37.390625 69.359375 
Q 42.328125 66.84375 44.9375 62.5 
Q 47.5625 58.15625 47.5625 53.265625 
Q 47.5625 48.640625 45.0625 44.828125 
Q 42.578125 41.015625 37.703125 38.765625 
Q 44.046875 37.3125 47.5625 32.6875 
Q 51.078125 28.078125 51.078125 21.140625 
Q 51.078125 11.765625 44.234375 5.25 
Q 37.40625 -1.265625 26.953125 -1.265625 
Q 17.53125 -1.265625 11.296875 4.34375 
Q 5.078125 9.96875 4.203125 18.890625 
z
" id="ArialMT-33"/>
      </defs>
      <g style="fill:#262626;" transform="translate(295.875781 383.357813)scale(0.1 -0.1)">
       <use xlink:href="#ArialMT-33"/>
      </g>
     </g>
    </g>
    <g id="xtick_5">
     <g id="line2d_13">
      <path clip-path="url(#p11833b61e1)" d="M 386.566667 369.2 
L 386.566667 23.8 
" style="fill:none;stroke:#ffffff;stroke-linecap:round;"/>
     </g>
     <g id="line2d_14"/>
     <g id="line2d_15"/>
     <g id="text_5">
      <!-- 4 -->
      <defs>
       <path d="M 32.328125 0 
L 32.328125 17.140625 
L 1.265625 17.140625 
L 1.265625 25.203125 
L 33.9375 71.578125 
L 41.109375 71.578125 
L 41.109375 25.203125 
L 50.78125 25.203125 
L 50.78125 17.140625 
L 41.109375 17.140625 
L 41.109375 0 
z
M 32.328125 25.203125 
L 32.328125 57.46875 
L 9.90625 25.203125 
z
" id="ArialMT-34"/>
      </defs>
      <g style="fill:#262626;" transform="translate(383.786198 383.357813)scale(0.1 -0.1)">
       <use xlink:href="#ArialMT-34"/>
      </g>
     </g>
    </g>
    <g id="xtick_6">
     <g id="line2d_16">
      <path clip-path="url(#p11833b61e1)" d="M 474.477083 369.2 
L 474.477083 23.8 
" style="fill:none;stroke:#ffffff;stroke-linecap:round;"/>
     </g>
     <g id="line2d_17"/>
     <g id="line2d_18"/>
     <g id="text_6">
      <!-- 5 -->
      <defs>
       <path d="M 4.15625 18.75 
L 13.375 19.53125 
Q 14.40625 12.796875 18.140625 9.390625 
Q 21.875 6 27.15625 6 
Q 33.5 6 37.890625 10.78125 
Q 42.28125 15.578125 42.28125 23.484375 
Q 42.28125 31 38.0625 35.34375 
Q 33.84375 39.703125 27 39.703125 
Q 22.75 39.703125 19.328125 37.765625 
Q 15.921875 35.84375 13.96875 32.765625 
L 5.71875 33.84375 
L 12.640625 70.609375 
L 48.25 70.609375 
L 48.25 62.203125 
L 19.671875 62.203125 
L 15.828125 42.96875 
Q 22.265625 47.46875 29.34375 47.46875 
Q 38.71875 47.46875 45.15625 40.96875 
Q 51.609375 34.46875 51.609375 24.265625 
Q 51.609375 14.546875 45.953125 7.46875 
Q 39.0625 -1.21875 27.15625 -1.21875 
Q 17.390625 -1.21875 11.203125 4.25 
Q 5.03125 9.71875 4.15625 18.75 
z
" id="ArialMT-35"/>
      </defs>
      <g style="fill:#262626;" transform="translate(471.696615 383.357813)scale(0.1 -0.1)">
       <use xlink:href="#ArialMT-35"/>
      </g>
     </g>
    </g>
    <g id="xtick_7">
     <g id="line2d_19">
      <path clip-path="url(#p11833b61e1)" d="M 562.3875 369.2 
L 562.3875 23.8 
" style="fill:none;stroke:#ffffff;stroke-linecap:round;"/>
     </g>
     <g id="line2d_20"/>
     <g id="line2d_21"/>
     <g id="text_7">
      <!-- 6 -->
      <defs>
       <path d="M 49.75 54.046875 
L 41.015625 53.375 
Q 39.84375 58.546875 37.703125 60.890625 
Q 34.125 64.65625 28.90625 64.65625 
Q 24.703125 64.65625 21.53125 62.3125 
Q 17.390625 59.28125 14.984375 53.46875 
Q 12.59375 47.65625 12.5 36.921875 
Q 15.671875 41.75 20.265625 44.09375 
Q 24.859375 46.4375 29.890625 46.4375 
Q 38.671875 46.4375 44.84375 39.96875 
Q 51.03125 33.5 51.03125 23.25 
Q 51.03125 16.5 48.125 10.71875 
Q 45.21875 4.9375 40.140625 1.859375 
Q 35.0625 -1.21875 28.609375 -1.21875 
Q 17.625 -1.21875 10.6875 6.859375 
Q 3.765625 14.9375 3.765625 33.5 
Q 3.765625 54.25 11.421875 63.671875 
Q 18.109375 71.875 29.4375 71.875 
Q 37.890625 71.875 43.28125 67.140625 
Q 48.6875 62.40625 49.75 54.046875 
z
M 13.875 23.1875 
Q 13.875 18.65625 15.796875 14.5 
Q 17.71875 10.359375 21.1875 8.171875 
Q 24.65625 6 28.46875 6 
Q 34.03125 6 38.03125 10.484375 
Q 42.046875 14.984375 42.046875 22.703125 
Q 42.046875 30.125 38.078125 34.390625 
Q 34.125 38.671875 28.125 38.671875 
Q 22.171875 38.671875 18.015625 34.390625 
Q 13.875 30.125 13.875 23.1875 
z
" id="ArialMT-36"/>
      </defs>
      <g style="fill:#262626;" transform="translate(559.607031 383.357813)scale(0.1 -0.1)">
       <use xlink:href="#ArialMT-36"/>
      </g>
     </g>
    </g>
   </g>
   <g id="matplotlib.axis_2">
    <g id="ytick_1">
     <g id="line2d_22">
      <path clip-path="url(#p11833b61e1)" d="M 34.925 369.2 
L 562.3875 369.2 
" style="fill:none;stroke:#ffffff;stroke-linecap:round;"/>
     </g>
     <g id="line2d_23"/>
     <g id="line2d_24"/>
     <g id="text_8">
      <!-- −15 -->
      <defs>
       <path d="M 52.828125 31.203125 
L 5.5625 31.203125 
L 5.5625 39.40625 
L 52.828125 39.40625 
z
" id="ArialMT-2212"/>
      </defs>
      <g style="fill:#262626;" transform="translate(10.9625 371.785156)scale(0.1 -0.1)">
       <use xlink:href="#ArialMT-2212"/>
       <use x="58.398438" xlink:href="#ArialMT-31"/>
       <use x="114.013672" xlink:href="#ArialMT-35"/>
      </g>
     </g>
    </g>
    <g id="ytick_2">
     <g id="line2d_25">
      <path clip-path="url(#p11833b61e1)" d="M 34.925 319.857143 
L 562.3875 319.857143 
" style="fill:none;stroke:#ffffff;stroke-linecap:round;"/>
     </g>
     <g id="line2d_26"/>
     <g id="line2d_27"/>
     <g id="text_9">
      <!-- −10 -->
      <g style="fill:#262626;" transform="translate(10.9625 322.442299)scale(0.1 -0.1)">
       <use xlink:href="#ArialMT-2212"/>
       <use x="58.398438" xlink:href="#ArialMT-31"/>
       <use x="114.013672" xlink:href="#ArialMT-30"/>
      </g>
     </g>
    </g>
    <g id="ytick_3">
     <g id="line2d_28">
      <path clip-path="url(#p11833b61e1)" d="M 34.925 270.514286 
L 562.3875 270.514286 
" style="fill:none;stroke:#ffffff;stroke-linecap:round;"/>
     </g>
     <g id="line2d_29"/>
     <g id="line2d_30"/>
     <g id="text_10">
      <!-- −5 -->
      <g style="fill:#262626;" transform="translate(16.523438 273.099442)scale(0.1 -0.1)">
       <use xlink:href="#ArialMT-2212"/>
       <use x="58.398438" xlink:href="#ArialMT-35"/>
      </g>
     </g>
    </g>
    <g id="ytick_4">
     <g id="line2d_31">
      <path clip-path="url(#p11833b61e1)" d="M 34.925 221.171429 
L 562.3875 221.171429 
" style="fill:none;stroke:#ffffff;stroke-linecap:round;"/>
     </g>
     <g id="line2d_32"/>
     <g id="line2d_33"/>
     <g id="text_11">
      <!-- 0 -->
      <g style="fill:#262626;" transform="translate(22.364063 223.756585)scale(0.1 -0.1)">
       <use xlink:href="#ArialMT-30"/>
      </g>
     </g>
    </g>
    <g id="ytick_5">
     <g id="line2d_34">
      <path clip-path="url(#p11833b61e1)" d="M 34.925 171.828571 
L 562.3875 171.828571 
" style="fill:none;stroke:#ffffff;stroke-linecap:round;"/>
     </g>
     <g id="line2d_35"/>
     <g id="line2d_36"/>
     <g id="text_12">
      <!-- 5 -->
      <g style="fill:#262626;" transform="translate(22.364063 174.413728)scale(0.1 -0.1)">
       <use xlink:href="#ArialMT-35"/>
      </g>
     </g>
    </g>
    <g id="ytick_6">
     <g id="line2d_37">
      <path clip-path="url(#p11833b61e1)" d="M 34.925 122.485714 
L 562.3875 122.485714 
" style="fill:none;stroke:#ffffff;stroke-linecap:round;"/>
     </g>
     <g id="line2d_38"/>
     <g id="line2d_39"/>
     <g id="text_13">
      <!-- 10 -->
      <g style="fill:#262626;" transform="translate(16.803125 125.070871)scale(0.1 -0.1)">
       <use xlink:href="#ArialMT-31"/>
       <use x="55.615234" xlink:href="#ArialMT-30"/>
      </g>
     </g>
    </g>
    <g id="ytick_7">
     <g id="line2d_40">
      <path clip-path="url(#p11833b61e1)" d="M 34.925 73.142857 
L 562.3875 73.142857 
" style="fill:none;stroke:#ffffff;stroke-linecap:round;"/>
     </g>
     <g id="line2d_41"/>
     <g id="line2d_42"/>
     <g id="text_14">
      <!-- 15 -->
      <g style="fill:#262626;" transform="translate(16.803125 75.728013)scale(0.1 -0.1)">
       <use xlink:href="#ArialMT-31"/>
       <use x="55.615234" xlink:href="#ArialMT-35"/>
      </g>
     </g>
    </g>
    <g id="ytick_8">
     <g id="line2d_43">
      <path clip-path="url(#p11833b61e1)" d="M 34.925 23.8 
L 562.3875 23.8 
" style="fill:none;stroke:#ffffff;stroke-linecap:round;"/>
     </g>
     <g id="line2d_44"/>
     <g id="line2d_45"/>
     <g id="text_15">
      <!-- 20 -->
      <g style="fill:#262626;" transform="translate(16.803125 26.385156)scale(0.1 -0.1)">
       <use xlink:href="#ArialMT-32"/>
       <use x="55.615234" xlink:href="#ArialMT-30"/>
      </g>
     </g>
    </g>
   </g>
   <g id="line2d_46">
    <path clip-path="url(#p11833b61e1)" d="M 34.925 211.302857 
L 52.507083 211.499572 
L 70.089167 212.081872 
L 87.67125 213.026545 
L 105.253333 214.295929 
L 122.835417 215.839417 
L 140.4175 217.595475 
L 157.999583 219.494096 
L 175.581667 221.459586 
L 193.16375 223.413589 
L 210.745833 225.278203 
L 228.327917 226.979094 
L 245.91 228.448451 
L 263.492083 229.627696 
L 281.074167 230.469817 
L 298.65625 230.94124 
L 316.238333 231.023172 
L 333.820417 230.712346 
L 351.4025 230.021153 
L 368.984583 228.97715 
L 386.566667 227.621957 
L 404.14875 226.009603 
L 421.730833 224.204365 
L 439.312917 222.278214 
L 456.895 220.307939 
L 474.477083 218.372088 
L 492.059167 216.547838 
L 509.64125 214.907917 
L 527.223333 213.517701 
L 544.805417 212.432616 
" style="fill:none;stroke:#3e98a3;stroke-linecap:round;stroke-width:1.75;"/>
   </g>
   <g id="line2d_47">
    <path clip-path="url(#p11833b61e1)" d="M 34.925 221.171429 
L 52.507083 219.210846 
L 70.089167 217.328426 
L 87.67125 215.599214 
L 105.253333 214.092149 
L 122.835417 212.867312 
L 140.4175 211.973534 
L 157.999583 211.446448 
L 175.581667 211.307065 
L 193.16375 211.560944 
L 210.745833 212.197962 
L 228.327917 213.192724 
L 245.91 214.505572 
L 263.492083 216.084166 
L 281.074167 217.865574 
L 298.65625 219.778776 
L 316.238333 221.747498 
L 333.820417 223.693254 
L 351.4025 225.538473 
L 368.984583 227.209592 
L 386.566667 228.639988 
L 404.14875 229.772636 
L 421.730833 230.562382 
L 439.312917 230.977739 
L 456.895 231.00215 
L 474.477083 230.634641 
L 492.059167 229.889864 
L 509.64125 228.79751 
L 527.223333 227.401128 
L 544.805417 225.756388 
" style="fill:none;stroke:#2188a8;stroke-linecap:round;stroke-width:1.75;"/>
   </g>
   <g id="line2d_48">
    <path clip-path="url(#p11833b61e1)" d="M 34.925 221.171429 
L 52.507083 219.17097 
L 70.089167 216.999063 
L 87.67125 214.419976 
L 105.253333 211.010367 
L 122.835417 205.802039 
L 140.4175 195.787967 
L 157.999583 163.954599 
L 168.371678 397 
M 185.219556 397 
L 193.16375 263.470708 
L 210.745833 242.734651 
L 228.327917 234.7291 
L 245.91 230.211181 
L 263.492083 227.108328 
L 281.074167 224.68 
L 298.65625 222.578159 
L 316.238333 220.594375 
L 333.820417 218.562998 
L 351.4025 216.301617 
L 368.984583 213.537535 
L 386.566667 209.745387 
L 404.14875 203.627282 
L 421.730833 190.615136 
L 439.312917 133.73416 
L 456.895 333.523838 
L 474.477083 254.532282 
L 492.059167 239.78002 
L 509.64125 233.186817 
L 527.223333 229.203886 
L 544.805417 226.349135 
" style="fill:none;stroke:#1a3c70;stroke-linecap:round;stroke-width:1.75;"/>
   </g>
   <g id="line2d_49">
    <path clip-path="url(#p11833b61e1)" d="M 34.925 221.171429 
L 52.507083 218.210857 
L 70.089167 215.250286 
L 87.67125 212.289714 
L 105.253333 209.329143 
L 122.835417 206.368571 
L 140.4175 203.408 
L 157.999583 200.447429 
L 175.581667 197.486857 
L 193.16375 194.526286 
L 210.745833 191.565714 
L 228.327917 188.605143 
L 245.91 185.644571 
L 263.492083 182.684 
L 281.074167 179.723429 
L 298.65625 176.762857 
L 316.238333 173.802286 
L 333.820417 170.841714 
L 351.4025 167.881143 
L 368.984583 164.920571 
L 386.566667 161.96 
L 404.14875 158.999429 
L 421.730833 156.038857 
L 439.312917 153.078286 
L 456.895 150.117714 
L 474.477083 147.157143 
L 492.059167 144.196571 
L 509.64125 141.236 
L 527.223333 138.275429 
L 544.805417 135.314857 
" style="fill:none;stroke:#1849a2;stroke-linecap:round;stroke-width:1.75;"/>
   </g>
   <g id="line2d_50">
    <path clip-path="url(#p11833b61e1)" d="M 34.925 211.302857 
L 52.507083 209.117928 
L 70.089167 206.44925 
L 87.67125 203.189719 
L 105.253333 199.208519 
L 122.835417 194.34587 
L 140.4175 188.406618 
L 157.999583 181.152398 
L 175.581667 172.292074 
L 193.16375 161.47005 
L 210.745833 148.252001 
L 228.327917 132.107438 
L 245.91 112.388425 
L 263.492083 88.303568 
L 281.074167 58.886257 
L 298.65625 22.955873 
L 308.253826 -1 
" style="fill:none;stroke:#8e8752;stroke-linecap:round;stroke-width:1.75;"/>
   </g>
   <g id="line2d_51">
    <path clip-path="url(#p11833b61e1)" d="M 34.925 221.171429 
L 52.507083 216.758069 
L 70.089167 214.929996 
L 87.67125 213.527266 
L 105.253333 212.34471 
L 122.835417 211.302857 
L 140.4175 210.36095 
L 157.999583 209.494777 
L 175.581667 208.688563 
L 193.16375 207.931351 
L 210.745833 207.215161 
L 228.327917 206.533972 
L 245.91 205.883103 
L 263.492083 205.258835 
L 281.074167 204.65815 
L 298.65625 204.078561 
L 316.238333 203.517991 
L 333.820417 202.974682 
L 351.4025 202.447131 
L 368.984583 201.934041 
L 386.566667 201.434286 
L 404.14875 200.946875 
L 421.730833 200.470939 
L 439.312917 200.005701 
L 456.895 199.550472 
L 474.477083 199.104632 
L 492.059167 198.667623 
L 509.64125 198.238941 
L 527.223333 197.818126 
L 544.805417 197.404761 
" style="fill:none;stroke:#d5d770;stroke-linecap:round;stroke-width:1.75;"/>
   </g>
   <g id="line2d_52">
    <path clip-path="url(#p11833b61e1)" d="M 34.925 221.171429 
L 52.507083 211.302857 
L 70.089167 211.302857 
L 87.67125 211.302857 
L 105.253333 211.302857 
L 122.835417 211.302857 
L 140.4175 201.434286 
L 157.999583 201.434286 
L 175.581667 201.434286 
L 193.16375 201.434286 
L 210.745833 201.434286 
L 228.327917 191.565714 
L 245.91 191.565714 
L 263.492083 191.565714 
L 281.074167 191.565714 
L 298.65625 191.565714 
L 316.238333 181.697143 
L 333.820417 181.697143 
L 351.4025 181.697143 
L 368.984583 181.697143 
L 386.566667 181.697143 
L 404.14875 171.828571 
L 421.730833 171.828571 
L 439.312917 171.828571 
L 456.895 171.828571 
L 474.477083 171.828571 
L 492.059167 161.96 
L 509.64125 161.96 
L 527.223333 161.96 
L 544.805417 161.96 
" style="fill:none;stroke:#42406c;stroke-linecap:round;stroke-width:1.75;"/>
   </g>
   <g id="line2d_53">
    <path clip-path="url(#p11833b61e1)" d="M 34.925 221.171429 
L 52.507083 221.171429 
L 70.089167 221.171429 
L 87.67125 221.171429 
L 105.253333 221.171429 
L 122.835417 211.302857 
L 140.4175 211.302857 
L 157.999583 211.302857 
L 175.581667 211.302857 
L 193.16375 211.302857 
L 210.745833 201.434286 
L 228.327917 201.434286 
L 245.91 201.434286 
L 263.492083 201.434286 
L 281.074167 201.434286 
L 298.65625 191.565714 
L 316.238333 191.565714 
L 333.820417 191.565714 
L 351.4025 191.565714 
L 368.984583 191.565714 
L 386.566667 181.697143 
L 404.14875 181.697143 
L 421.730833 181.697143 
L 439.312917 181.697143 
L 456.895 181.697143 
L 474.477083 171.828571 
L 492.059167 171.828571 
L 509.64125 171.828571 
L 527.223333 171.828571 
L 544.805417 171.828571 
" style="fill:none;stroke:#cbb9b2;stroke-linecap:round;stroke-width:1.75;"/>
   </g>
   <g id="line2d_54">
    <path clip-path="url(#p11833b61e1)" d="M 34.925 221.171429 
L 52.507083 220.776686 
L 70.089167 219.592457 
L 87.67125 217.618743 
L 105.253333 214.855543 
L 122.835417 211.302857 
L 140.4175 206.960686 
L 157.999583 201.829029 
L 175.581667 195.907886 
L 193.16375 189.197257 
L 210.745833 181.697143 
L 228.327917 173.407543 
L 245.91 164.328457 
L 263.492083 154.459886 
L 281.074167 143.801829 
L 298.65625 132.354286 
L 316.238333 120.117257 
L 333.820417 107.090743 
L 351.4025 93.274743 
L 368.984583 78.669257 
L 386.566667 63.274286 
L 404.14875 47.089829 
L 421.730833 30.115886 
L 439.312917 12.352457 
L 451.966671 -1 
" style="fill:none;stroke:#2d080a;stroke-linecap:round;stroke-width:1.75;"/>
   </g>
   <g id="line2d_55">
    <path clip-path="url(#p11833b61e1)" d="M 34.925 221.171429 
L 52.507083 221.09248 
L 70.089167 220.53984 
L 87.67125 219.039817 
L 105.253333 216.11872 
L 122.835417 211.302857 
L 140.4175 204.118537 
L 157.999583 194.092069 
L 175.581667 180.74976 
L 193.16375 163.61792 
L 210.745833 142.222857 
L 228.327917 116.09088 
L 245.91 84.748297 
L 263.492083 47.721417 
L 281.074167 4.536549 
L 283.028217 -1 
" style="fill:none;stroke:#c23841;stroke-linecap:round;stroke-width:1.75;"/>
   </g>
   <g id="line2d_56">
    <path clip-path="url(#p11833b61e1)" d="M 34.925 211.302857 
L 52.507083 211.499572 
L 70.089167 212.081872 
L 87.67125 213.026545 
L 105.253333 214.295929 
L 122.835417 215.839417 
L 140.4175 217.595475 
L 157.999583 219.494096 
L 175.581667 221.459586 
L 193.16375 223.413589 
L 210.745833 225.278203 
L 228.327917 226.979094 
L 245.91 228.448451 
L 263.492083 229.627696 
L 281.074167 230.469817 
L 298.65625 230.94124 
L 316.238333 231.023172 
L 333.820417 230.712346 
L 351.4025 230.021153 
L 368.984583 228.97715 
L 386.566667 227.621957 
L 404.14875 226.009603 
L 421.730833 224.204365 
L 439.312917 222.278214 
L 456.895 220.307939 
L 474.477083 218.372088 
L 492.059167 216.547838 
L 509.64125 214.907917 
L 527.223333 213.517701 
L 544.805417 212.432616 
" style="fill:none;stroke:#758fbf;stroke-linecap:round;stroke-width:1.75;"/>
   </g>
   <g id="line2d_57">
    <path clip-path="url(#p11833b61e1)" d="M 34.925 221.171429 
L 52.507083 219.210846 
L 70.089167 217.328426 
L 87.67125 215.599214 
L 105.253333 214.092149 
L 122.835417 212.867312 
L 140.4175 211.973534 
L 157.999583 211.446448 
L 175.581667 211.307065 
L 193.16375 211.560944 
L 210.745833 212.197962 
L 228.327917 213.192724 
L 245.91 214.505572 
L 263.492083 216.084166 
L 281.074167 217.865574 
L 298.65625 219.778776 
L 316.238333 221.747498 
L 333.820417 223.693254 
L 351.4025 225.538473 
L 368.984583 227.209592 
L 386.566667 228.639988 
L 404.14875 229.772636 
L 421.730833 230.562382 
L 439.312917 230.977739 
L 456.895 231.00215 
L 474.477083 230.634641 
L 492.059167 229.889864 
L 509.64125 228.79751 
L 527.223333 227.401128 
L 544.805417 225.756388 
" style="fill:none;stroke:#2f69c1;stroke-linecap:round;stroke-width:1.75;"/>
   </g>
   <g id="line2d_58">
    <path clip-path="url(#p11833b61e1)" d="M 34.925 221.171429 
L 52.507083 219.17097 
L 70.089167 216.999063 
L 87.67125 214.419976 
L 105.253333 211.010367 
L 122.835417 205.802039 
L 140.4175 195.787967 
L 157.999583 163.954599 
L 168.371678 397 
M 185.219556 397 
L 193.16375 263.470708 
L 210.745833 242.734651 
L 228.327917 234.7291 
L 245.91 230.211181 
L 263.492083 227.108328 
L 281.074167 224.68 
L 298.65625 222.578159 
L 316.238333 220.594375 
L 333.820417 218.562998 
L 351.4025 216.301617 
L 368.984583 213.537535 
L 386.566667 209.745387 
L 404.14875 203.627282 
L 421.730833 190.615136 
L 439.312917 133.73416 
L 456.895 333.523838 
L 474.477083 254.532282 
L 492.059167 239.78002 
L 509.64125 233.186817 
L 527.223333 229.203886 
L 544.805417 226.349135 
" style="fill:none;stroke:#304436;stroke-linecap:round;stroke-width:1.75;"/>
   </g>
   <g id="line2d_59">
    <path clip-path="url(#p11833b61e1)" d="M 34.925 221.171429 
L 52.507083 218.210857 
L 70.089167 215.250286 
L 87.67125 212.289714 
L 105.253333 209.329143 
L 122.835417 206.368571 
L 140.4175 203.408 
L 157.999583 200.447429 
L 175.581667 197.486857 
L 193.16375 194.526286 
L 210.745833 191.565714 
L 228.327917 188.605143 
L 245.91 185.644571 
L 263.492083 182.684 
L 281.074167 179.723429 
L 298.65625 176.762857 
L 316.238333 173.802286 
L 333.820417 170.841714 
L 351.4025 167.881143 
L 368.984583 164.920571 
L 386.566667 161.96 
L 404.14875 158.999429 
L 421.730833 156.038857 
L 439.312917 153.078286 
L 456.895 150.117714 
L 474.477083 147.157143 
L 492.059167 144.196571 
L 509.64125 141.236 
L 527.223333 138.275429 
L 544.805417 135.314857 
" style="fill:none;stroke:#4e683c;stroke-linecap:round;stroke-width:1.75;"/>
   </g>
   <g id="line2d_60">
    <path clip-path="url(#p11833b61e1)" d="M 34.925 211.302857 
L 52.507083 209.117928 
L 70.089167 206.44925 
L 87.67125 203.189719 
L 105.253333 199.208519 
L 122.835417 194.34587 
L 140.4175 188.406618 
L 157.999583 181.152398 
L 175.581667 172.292074 
L 193.16375 161.47005 
L 210.745833 148.252001 
L 228.327917 132.107438 
L 245.91 112.388425 
L 263.492083 88.303568 
L 281.074167 58.886257 
L 298.65625 22.955873 
L 308.253826 -1 
" style="fill:none;stroke:#78a670;stroke-linecap:round;stroke-width:1.75;"/>
   </g>
   <g id="line2d_61">
    <path clip-path="url(#p11833b61e1)" d="M 34.925 221.171429 
L 52.507083 216.758069 
L 70.089167 214.929996 
L 87.67125 213.527266 
L 105.253333 212.34471 
L 122.835417 211.302857 
L 140.4175 210.36095 
L 157.999583 209.494777 
L 175.581667 208.688563 
L 193.16375 207.931351 
L 210.745833 207.215161 
L 228.327917 206.533972 
L 245.91 205.883103 
L 263.492083 205.258835 
L 281.074167 204.65815 
L 298.65625 204.078561 
L 316.238333 203.517991 
L 333.820417 202.974682 
L 351.4025 202.447131 
L 368.984583 201.934041 
L 386.566667 201.434286 
L 404.14875 200.946875 
L 421.730833 200.470939 
L 439.312917 200.005701 
L 456.895 199.550472 
L 474.477083 199.104632 
L 492.059167 198.667623 
L 509.64125 198.238941 
L 527.223333 197.818126 
L 544.805417 197.404761 
" style="fill:none;stroke:#893836;stroke-linecap:round;stroke-width:1.75;"/>
   </g>
   <g id="line2d_62">
    <path clip-path="url(#p11833b61e1)" d="M 34.925 221.171429 
L 52.507083 211.302857 
L 70.089167 211.302857 
L 87.67125 211.302857 
L 105.253333 211.302857 
L 122.835417 211.302857 
L 140.4175 201.434286 
L 157.999583 201.434286 
L 175.581667 201.434286 
L 193.16375 201.434286 
L 210.745833 201.434286 
L 228.327917 191.565714 
L 245.91 191.565714 
L 263.492083 191.565714 
L 281.074167 191.565714 
L 298.65625 191.565714 
L 316.238333 181.697143 
L 333.820417 181.697143 
L 351.4025 181.697143 
L 368.984583 181.697143 
L 386.566667 181.697143 
L 404.14875 171.828571 
L 421.730833 171.828571 
L 439.312917 171.828571 
L 456.895 171.828571 
L 474.477083 171.828571 
L 492.059167 161.96 
L 509.64125 161.96 
L 527.223333 161.96 
L 544.805417 161.96 
" style="fill:none;stroke:#a7784c;stroke-linecap:round;stroke-width:1.75;"/>
   </g>
   <g id="line2d_63">
    <path clip-path="url(#p11833b61e1)" d="M 34.925 221.171429 
L 52.507083 221.171429 
L 70.089167 221.171429 
L 87.67125 221.171429 
L 105.253333 221.171429 
L 122.835417 211.302857 
L 140.4175 211.302857 
L 157.999583 211.302857 
L 175.581667 211.302857 
L 193.16375 211.302857 
L 210.745833 201.434286 
L 228.327917 201.434286 
L 245.91 201.434286 
L 263.492083 201.434286 
L 281.074167 201.434286 
L 298.65625 191.565714 
L 316.238333 191.565714 
L 333.820417 191.565714 
L 351.4025 191.565714 
L 368.984583 191.565714 
L 386.566667 181.697143 
L 404.14875 181.697143 
L 421.730833 181.697143 
L 439.312917 181.697143 
L 456.895 181.697143 
L 474.477083 171.828571 
L 492.059167 171.828571 
L 509.64125 171.828571 
L 527.223333 171.828571 
L 544.805417 171.828571 
" style="fill:none;stroke:#995d34;stroke-linecap:round;stroke-width:1.75;"/>
   </g>
   <g id="line2d_64">
    <path clip-path="url(#p11833b61e1)" d="M 34.925 221.171429 
L 52.507083 220.776686 
L 70.089167 219.592457 
L 87.67125 217.618743 
L 105.253333 214.855543 
L 122.835417 211.302857 
L 140.4175 206.960686 
L 157.999583 201.829029 
L 175.581667 195.907886 
L 193.16375 189.197257 
L 210.745833 181.697143 
L 228.327917 173.407543 
L 245.91 164.328457 
L 263.492083 154.459886 
L 281.074167 143.801829 
L 298.65625 132.354286 
L 316.238333 120.117257 
L 333.820417 107.090743 
L 351.4025 93.274743 
L 368.984583 78.669257 
L 386.566667 63.274286 
L 404.14875 47.089829 
L 421.730833 30.115886 
L 439.312917 12.352457 
L 451.966671 -1 
" style="fill:none;stroke:#e5d234;stroke-linecap:round;stroke-width:1.75;"/>
   </g>
   <g id="line2d_65">
    <path clip-path="url(#p11833b61e1)" d="M 34.925 221.171429 
L 52.507083 221.09248 
L 70.089167 220.53984 
L 87.67125 219.039817 
L 105.253333 216.11872 
L 122.835417 211.302857 
L 140.4175 204.118537 
L 157.999583 194.092069 
L 175.581667 180.74976 
L 193.16375 163.61792 
L 210.745833 142.222857 
L 228.327917 116.09088 
L 245.91 84.748297 
L 263.492083 47.721417 
L 281.074167 4.536549 
L 283.028217 -1 
" style="fill:none;stroke:#dadb6d;stroke-linecap:round;stroke-width:1.75;"/>
   </g>
   <g id="line2d_66">
    <path clip-path="url(#p11833b61e1)" d="M 34.925 211.302857 
L 52.507083 211.499572 
L 70.089167 212.081872 
L 87.67125 213.026545 
L 105.253333 214.295929 
L 122.835417 215.839417 
L 140.4175 217.595475 
L 157.999583 219.494096 
L 175.581667 221.459586 
L 193.16375 223.413589 
L 210.745833 225.278203 
L 228.327917 226.979094 
L 245.91 228.448451 
L 263.492083 229.627696 
L 281.074167 230.469817 
L 298.65625 230.94124 
L 316.238333 231.023172 
L 333.820417 230.712346 
L 351.4025 230.021153 
L 368.984583 228.97715 
L 386.566667 227.621957 
L 404.14875 226.009603 
L 421.730833 224.204365 
L 439.312917 222.278214 
L 456.895 220.307939 
L 474.477083 218.372088 
L 492.059167 216.547838 
L 509.64125 214.907917 
L 527.223333 213.517701 
L 544.805417 212.432616 
" style="fill:none;stroke:#ddedff;stroke-linecap:round;stroke-width:1.75;"/>
   </g>
   <g id="line2d_67">
    <path clip-path="url(#p11833b61e1)" d="M 34.925 221.171429 
L 52.507083 219.210846 
L 70.089167 217.328426 
L 87.67125 215.599214 
L 105.253333 214.092149 
L 122.835417 212.867312 
L 140.4175 211.973534 
L 157.999583 211.446448 
L 175.581667 211.307065 
L 193.16375 211.560944 
L 210.745833 212.197962 
L 228.327917 213.192724 
L 245.91 214.505572 
L 263.492083 216.084166 
L 281.074167 217.865574 
L 298.65625 219.778776 
L 316.238333 221.747498 
L 333.820417 223.693254 
L 351.4025 225.538473 
L 368.984583 227.209592 
L 386.566667 228.639988 
L 404.14875 229.772636 
L 421.730833 230.562382 
L 439.312917 230.977739 
L 456.895 231.00215 
L 474.477083 230.634641 
L 492.059167 229.889864 
L 509.64125 228.79751 
L 527.223333 227.401128 
L 544.805417 225.756388 
" style="fill:none;stroke:#25387d;stroke-linecap:round;stroke-width:1.75;"/>
   </g>
   <g id="line2d_68">
    <path clip-path="url(#p11833b61e1)" d="M 34.925 221.171429 
L 52.507083 219.17097 
L 70.089167 216.999063 
L 87.67125 214.419976 
L 105.253333 211.010367 
L 122.835417 205.802039 
L 140.4175 195.787967 
L 157.999583 163.954599 
L 168.371678 397 
M 185.219556 397 
L 193.16375 263.470708 
L 210.745833 242.734651 
L 228.327917 234.7291 
L 245.91 230.211181 
L 263.492083 227.108328 
L 281.074167 224.68 
L 298.65625 222.578159 
L 316.238333 220.594375 
L 333.820417 218.562998 
L 351.4025 216.301617 
L 368.984583 213.537535 
L 386.566667 209.745387 
L 404.14875 203.627282 
L 421.730833 190.615136 
L 439.312917 133.73416 
L 456.895 333.523838 
L 474.477083 254.532282 
L 492.059167 239.78002 
L 509.64125 233.186817 
L 527.223333 229.203886 
L 544.805417 226.349135 
" style="fill:none;stroke:#364590;stroke-linecap:round;stroke-width:1.75;"/>
   </g>
   <g id="line2d_69">
    <path clip-path="url(#p11833b61e1)" d="M 34.925 221.171429 
L 52.507083 218.210857 
L 70.089167 215.250286 
L 87.67125 212.289714 
L 105.253333 209.329143 
L 122.835417 206.368571 
L 140.4175 203.408 
L 157.999583 200.447429 
L 175.581667 197.486857 
L 193.16375 194.526286 
L 210.745833 191.565714 
L 228.327917 188.605143 
L 245.91 185.644571 
L 263.492083 182.684 
L 281.074167 179.723429 
L 298.65625 176.762857 
L 316.238333 173.802286 
L 333.820417 170.841714 
L 351.4025 167.881143 
L 368.984583 164.920571 
L 386.566667 161.96 
L 404.14875 158.999429 
L 421.730833 156.038857 
L 439.312917 153.078286 
L 456.895 150.117714 
L 474.477083 147.157143 
L 492.059167 144.196571 
L 509.64125 141.236 
L 527.223333 138.275429 
L 544.805417 135.314857 
" style="fill:none;stroke:#314899;stroke-linecap:round;stroke-width:1.75;"/>
   </g>
   <g id="line2d_70">
    <path clip-path="url(#p11833b61e1)" d="M 34.925 211.302857 
L 52.507083 209.117928 
L 70.089167 206.44925 
L 87.67125 203.189719 
L 105.253333 199.208519 
L 122.835417 194.34587 
L 140.4175 188.406618 
L 157.999583 181.152398 
L 175.581667 172.292074 
L 193.16375 161.47005 
L 210.745833 148.252001 
L 228.327917 132.107438 
L 245.91 112.388425 
L 263.492083 88.303568 
L 281.074167 58.886257 
L 298.65625 22.955873 
L 308.253826 -1 
" style="fill:none;stroke:#5483c4;stroke-linecap:round;stroke-width:1.75;"/>
   </g>
   <g id="line2d_71">
    <path clip-path="url(#p11833b61e1)" d="M 34.925 221.171429 
L 52.507083 216.758069 
L 70.089167 214.929996 
L 87.67125 213.527266 
L 105.253333 212.34471 
L 122.835417 211.302857 
L 140.4175 210.36095 
L 157.999583 209.494777 
L 175.581667 208.688563 
L 193.16375 207.931351 
L 210.745833 207.215161 
L 228.327917 206.533972 
L 245.91 205.883103 
L 263.492083 205.258835 
L 281.074167 204.65815 
L 298.65625 204.078561 
L 316.238333 203.517991 
L 333.820417 202.974682 
L 351.4025 202.447131 
L 368.984583 201.934041 
L 386.566667 201.434286 
L 404.14875 200.946875 
L 421.730833 200.470939 
L 439.312917 200.005701 
L 456.895 199.550472 
L 474.477083 199.104632 
L 492.059167 198.667623 
L 509.64125 198.238941 
L 527.223333 197.818126 
L 544.805417 197.404761 
" style="fill:none;stroke:#62a0dc;stroke-linecap:round;stroke-width:1.75;"/>
   </g>
   <g id="line2d_72">
    <path clip-path="url(#p11833b61e1)" d="M 34.925 221.171429 
L 52.507083 211.302857 
L 70.089167 211.302857 
L 87.67125 211.302857 
L 105.253333 211.302857 
L 122.835417 211.302857 
L 140.4175 201.434286 
L 157.999583 201.434286 
L 175.581667 201.434286 
L 193.16375 201.434286 
L 210.745833 201.434286 
L 228.327917 191.565714 
L 245.91 191.565714 
L 263.492083 191.565714 
L 281.074167 191.565714 
L 298.65625 191.565714 
L 316.238333 181.697143 
L 333.820417 181.697143 
L 351.4025 181.697143 
L 368.984583 181.697143 
L 386.566667 181.697143 
L 404.14875 171.828571 
L 421.730833 171.828571 
L 439.312917 171.828571 
L 456.895 171.828571 
L 474.477083 171.828571 
L 492.059167 161.96 
L 509.64125 161.96 
L 527.223333 161.96 
L 544.805417 161.96 
" style="fill:none;stroke:#81b4df;stroke-linecap:round;stroke-width:1.75;"/>
   </g>
   <g id="line2d_73">
    <path clip-path="url(#p11833b61e1)" d="M 34.925 221.171429 
L 52.507083 221.171429 
L 70.089167 221.171429 
L 87.67125 221.171429 
L 105.253333 221.171429 
L 122.835417 211.302857 
L 140.4175 211.302857 
L 157.999583 211.302857 
L 175.581667 211.302857 
L 193.16375 211.302857 
L 210.745833 201.434286 
L 228.327917 201.434286 
L 245.91 201.434286 
L 263.492083 201.434286 
L 281.074167 201.434286 
L 298.65625 191.565714 
L 316.238333 191.565714 
L 333.820417 191.565714 
L 351.4025 191.565714 
L 368.984583 191.565714 
L 386.566667 181.697143 
L 404.14875 181.697143 
L 421.730833 181.697143 
L 439.312917 181.697143 
L 456.895 181.697143 
L 474.477083 171.828571 
L 492.059167 171.828571 
L 509.64125 171.828571 
L 527.223333 171.828571 
L 544.805417 171.828571 
" style="fill:none;stroke:#661225;stroke-linecap:round;stroke-width:1.75;"/>
   </g>
   <g id="line2d_74">
    <path clip-path="url(#p11833b61e1)" d="M 34.925 221.171429 
L 52.507083 220.776686 
L 70.089167 219.592457 
L 87.67125 217.618743 
L 105.253333 214.855543 
L 122.835417 211.302857 
L 140.4175 206.960686 
L 157.999583 201.829029 
L 175.581667 195.907886 
L 193.16375 189.197257 
L 210.745833 181.697143 
L 228.327917 173.407543 
L 245.91 164.328457 
L 263.492083 154.459886 
L 281.074167 143.801829 
L 298.65625 132.354286 
L 316.238333 120.117257 
L 333.820417 107.090743 
L 351.4025 93.274743 
L 368.984583 78.669257 
L 386.566667 63.274286 
L 404.14875 47.089829 
L 421.730833 30.115886 
L 439.312917 12.352457 
L 451.966671 -1 
" style="fill:none;stroke:#984364;stroke-linecap:round;stroke-width:1.75;"/>
   </g>
   <g id="line2d_75">
    <path clip-path="url(#p11833b61e1)" d="M 34.925 221.171429 
L 52.507083 221.09248 
L 70.089167 220.53984 
L 87.67125 219.039817 
L 105.253333 216.11872 
L 122.835417 211.302857 
L 140.4175 204.118537 
L 157.999583 194.092069 
L 175.581667 180.74976 
L 193.16375 163.61792 
L 210.745833 142.222857 
L 228.327917 116.09088 
L 245.91 84.748297 
L 263.492083 47.721417 
L 281.074167 4.536549 
L 283.028217 -1 
" style="fill:none;stroke:#b03d37;stroke-linecap:round;stroke-width:1.75;"/>
   </g>
   <g id="patch_3">
    <path d="M 34.925 369.2 
L 34.925 23.8 
" style="fill:none;"/>
   </g>
   <g id="patch_4">
    <path d="M 562.3875 369.2 
L 562.3875 23.8 
" style="fill:none;"/>
   </g>
   <g id="patch_5">
    <path d="M 34.925 369.2 
L 562.3875 369.2 
" style="fill:none;"/>
   </g>
   <g id="patch_6">
    <path d="M 34.925 23.8 
L 562.3875 23.8 
" style="fill:none;"/>
   </g>
   <g id="text_16">
    <!-- PONYO PALETTE -->
    <defs>
     <path d="M 7.71875 0 
L 7.71875 71.578125 
L 34.71875 71.578125 
Q 41.84375 71.578125 45.609375 70.90625 
Q 50.875 70.015625 54.4375 67.546875 
Q 58.015625 65.09375 60.1875 60.640625 
Q 62.359375 56.203125 62.359375 50.875 
Q 62.359375 41.75 56.546875 35.421875 
Q 50.734375 29.109375 35.546875 29.109375 
L 17.1875 29.109375 
L 17.1875 0 
z
M 17.1875 37.546875 
L 35.6875 37.546875 
Q 44.875 37.546875 48.734375 40.96875 
Q 52.59375 44.390625 52.59375 50.59375 
Q 52.59375 55.078125 50.3125 58.265625 
Q 48.046875 61.46875 44.34375 62.5 
Q 41.9375 63.140625 35.5 63.140625 
L 17.1875 63.140625 
z
" id="ArialMT-50"/>
     <path d="M 4.828125 34.859375 
Q 4.828125 52.6875 14.390625 62.765625 
Q 23.96875 72.859375 39.109375 72.859375 
Q 49.03125 72.859375 56.984375 68.109375 
Q 64.9375 63.375 69.109375 54.90625 
Q 73.296875 46.4375 73.296875 35.6875 
Q 73.296875 24.8125 68.890625 16.21875 
Q 64.5 7.625 56.4375 3.203125 
Q 48.390625 -1.21875 39.0625 -1.21875 
Q 28.953125 -1.21875 20.984375 3.65625 
Q 13.03125 8.546875 8.921875 16.984375 
Q 4.828125 25.4375 4.828125 34.859375 
z
M 14.59375 34.71875 
Q 14.59375 21.78125 21.546875 14.328125 
Q 28.515625 6.890625 39.015625 6.890625 
Q 49.703125 6.890625 56.609375 14.40625 
Q 63.53125 21.921875 63.53125 35.75 
Q 63.53125 44.484375 60.578125 51 
Q 57.625 57.515625 51.921875 61.109375 
Q 46.234375 64.703125 39.15625 64.703125 
Q 29.109375 64.703125 21.84375 57.78125 
Q 14.59375 50.875 14.59375 34.71875 
z
" id="ArialMT-4f"/>
     <path d="M 7.625 0 
L 7.625 71.578125 
L 17.328125 71.578125 
L 54.9375 15.375 
L 54.9375 71.578125 
L 64.015625 71.578125 
L 64.015625 0 
L 54.296875 0 
L 16.703125 56.25 
L 16.703125 0 
z
" id="ArialMT-4e"/>
     <path d="M 27.875 0 
L 27.875 30.328125 
L 0.296875 71.578125 
L 11.8125 71.578125 
L 25.921875 50 
Q 29.828125 43.953125 33.203125 37.890625 
Q 36.421875 43.5 41.015625 50.53125 
L 54.890625 71.578125 
L 65.921875 71.578125 
L 37.359375 30.328125 
L 37.359375 0 
z
" id="ArialMT-59"/>
     <path id="ArialMT-20"/>
     <path d="M -0.140625 0 
L 27.34375 71.578125 
L 37.546875 71.578125 
L 66.84375 0 
L 56.0625 0 
L 47.703125 21.6875 
L 17.78125 21.6875 
L 9.90625 0 
z
M 20.515625 29.390625 
L 44.78125 29.390625 
L 37.3125 49.21875 
Q 33.890625 58.25 32.234375 64.0625 
Q 30.859375 57.171875 28.375 50.390625 
z
" id="ArialMT-41"/>
     <path d="M 7.328125 0 
L 7.328125 71.578125 
L 16.796875 71.578125 
L 16.796875 8.453125 
L 52.046875 8.453125 
L 52.046875 0 
z
" id="ArialMT-4c"/>
     <path d="M 7.90625 0 
L 7.90625 71.578125 
L 59.671875 71.578125 
L 59.671875 63.140625 
L 17.390625 63.140625 
L 17.390625 41.21875 
L 56.984375 41.21875 
L 56.984375 32.8125 
L 17.390625 32.8125 
L 17.390625 8.453125 
L 61.328125 8.453125 
L 61.328125 0 
z
" id="ArialMT-45"/>
     <path d="M 25.921875 0 
L 25.921875 63.140625 
L 2.34375 63.140625 
L 2.34375 71.578125 
L 59.078125 71.578125 
L 59.078125 63.140625 
L 35.40625 63.140625 
L 35.40625 0 
z
" id="ArialMT-54"/>
    </defs>
    <g style="fill:#262626;" transform="translate(248.65 18.8)scale(0.12 -0.12)">
     <use xlink:href="#ArialMT-50"/>
     <use x="66.699219" xlink:href="#ArialMT-4f"/>
     <use x="144.482422" xlink:href="#ArialMT-4e"/>
     <use x="216.699219" xlink:href="#ArialMT-59"/>
     <use x="283.398438" xlink:href="#ArialMT-4f"/>
     <use x="361.181641" xlink:href="#ArialMT-20"/>
     <use x="388.964844" xlink:href="#ArialMT-50"/>
     <use x="455.554688" xlink:href="#ArialMT-41"/>
     <use x="522.253906" xlink:href="#ArialMT-4c"/>
     <use x="577.869141" xlink:href="#ArialMT-45"/>
     <use x="644.568359" xlink:href="#ArialMT-54"/>
     <use x="705.652344" xlink:href="#ArialMT-54"/>
     <use x="766.736328" xlink:href="#ArialMT-45"/>
    </g>
   </g>
  </g>
 </g>
 <defs>
  <clipPath id="p11833b61e1">
   <rect height="345.4" width="527.4625" x="34.925" y="23.8"/>
  </clipPath>
 </defs>
</svg>
